<?xml version="1.0" encoding="utf-8"?>
<!-- Generator: Adobe Illustrator 26.3.1, SVG Export Plug-In . SVG Version: 6.00 Build 0)  -->
<svg version="1.1" id="Layer_1" xmlns="http://www.w3.org/2000/svg" xmlns:xlink="http://www.w3.org/1999/xlink" x="0px" y="0px"
	 viewBox="0 0 1052 232" style="enable-background:new 0 0 1052 232;" xml:space="preserve">
<g>
	<path d="M47.15,14.59L29.89,58.98h-6.05L6.58,14.59h6.27l14.02,38.05l14.02-38.05H47.15z"/>
	<path d="M59.16,58.98h-5.9V14.59h5.9V58.98z"/>
	<path d="M106.75,58.98h-6.36l-4.18-11.84c-0.75-2.1-1.99-3.81-3.72-5.15c-1.74-1.33-3.73-2-5.99-2H75.63v18.98h-5.87V14.59h19.65
		c3.43,0,6.24,0.33,8.42,1s3.96,2.07,5.33,4.21c1.37,2.14,2.06,4.55,2.06,7.24c0,3.07-0.89,5.63-2.66,7.69
		c-1.78,2.06-4.21,3.4-7.3,4.03v0.12c3.09,0.99,5.44,3.66,7.05,8.02L106.75,58.98z M75.63,34.73h13.11c3.65,0,6.3-0.58,7.95-1.73
		c1.64-1.15,2.47-3.14,2.47-5.96c0-5.05-3.17-7.57-9.51-7.57H75.63V34.73z"/>
	<path d="M133.94,59.73c-6.38,0-11.55-2.09-15.52-6.27s-5.95-9.74-5.95-16.68c0-6.96,1.96-12.53,5.87-16.7
		c3.92-4.17,9.05-6.25,15.41-6.25c5.35,0,9.79,1.29,13.34,3.86s5.52,6.02,5.95,10.34h-6.08c-0.24-2.87-1.53-5.11-3.88-6.74
		c-2.34-1.62-5.43-2.44-9.26-2.44c-4.58,0-8.27,1.56-11.06,4.69c-2.8,3.13-4.19,7.54-4.19,13.23c0,5.67,1.41,10.08,4.24,13.21
		c2.83,3.14,6.52,4.71,11.08,4.71c6.4,0,11.15-2.11,14.26-6.33v-6.75h-11.72v-5.3h17.41v22.64h-4.15l-1.54-4.66
		C145.13,57.93,140.4,59.73,133.94,59.73z"/>
	<path d="M169.39,58.98h-5.9V14.59h5.9V58.98z"/>
	<path d="M207.44,58.98h-27.46V14.59h5.87v39.11h21.58V58.98z"/>
	<path d="M267.38,58.98h-6.63l-5.15-13.5h-18.59l-4.9,13.5h-6.21l17.04-44.38h6.33L267.38,58.98z M253.88,40.81l-7.81-20.59
		l-7.45,20.59H253.88z"/>
	<path d="M305.47,46.08c0,4.16-1.41,7.35-4.24,9.57c-2.83,2.22-6.93,3.33-12.32,3.33h-16.62V14.59h15.8c4.72,0,8.44,1.01,11.14,3.03
		c2.7,2.02,4.06,4.78,4.06,8.29c0,4.28-2.13,7.45-6.39,9.51c2.87,0.73,5.01,2.06,6.43,4.01C304.76,41.38,305.47,43.6,305.47,46.08z
		 M278.16,33.18h9.87c3.25,0,5.64-0.52,7.17-1.56c1.53-1.04,2.3-2.77,2.3-5.19c0-2.18-0.75-3.82-2.24-4.92
		c-1.49-1.1-4.09-1.65-7.78-1.65h-9.32V33.18z M278.16,53.71h10.69c7.02,0,10.54-2.54,10.54-7.63c0-2.64-0.81-4.58-2.44-5.8
		c-1.62-1.22-4.58-1.83-8.85-1.83h-9.93V53.71z"/>
	<path d="M341.1,58.98h-27.46V14.59h5.87v39.11h21.58V58.98z"/>
	<path d="M367.35,13.84c6.22,0,11.3,2.1,15.26,6.3c3.96,4.2,5.93,9.75,5.93,16.65s-1.98,12.45-5.93,16.65
		c-3.96,4.2-9.04,6.3-15.26,6.3c-6.24,0-11.34-2.1-15.32-6.31c-3.98-4.21-5.96-9.75-5.96-16.64c0-6.9,1.99-12.45,5.96-16.65
		C356,15.94,361.11,13.84,367.35,13.84z M367.29,54.71c4.44,0,8.08-1.57,10.91-4.72c2.84-3.15,4.25-7.55,4.25-13.2
		c0-5.65-1.41-10.05-4.24-13.2c-2.83-3.15-6.43-4.72-10.81-4.72c-4.46,0-8.12,1.57-10.97,4.72c-2.86,3.15-4.28,7.55-4.28,13.2
		c0,5.63,1.42,10.03,4.27,13.18C359.26,53.13,362.89,54.71,367.29,54.71z"/>
	<path d="M431.19,58.98h-5.9V38.09h-23.07v20.89h-5.87V14.59h5.87v18.22h23.07V14.59h5.9V58.98z"/>
	<path d="M445.15,21.83l-1.36,8.51h-3.36l-1.48-8.51v-7.24h6.21V21.83z"/>
	<path d="M463.68,59.73c-8.78,0-13.37-3.45-13.77-10.35h5.72c0.04,3.92,2.7,5.87,7.99,5.87c2.36,0,4.16-0.49,5.4-1.47
		c1.24-0.98,1.86-2.2,1.86-3.68c0-1.45-0.61-2.48-1.82-3.07c-1.21-0.6-3.71-1.37-7.49-2.32c-3.78-0.95-6.55-2.01-8.29-3.18
		c-1.75-1.17-2.62-3.23-2.62-6.18c0-2.66,1.08-4.87,3.25-6.61c2.17-1.75,5.07-2.62,8.7-2.62c8.42,0,12.71,3,12.9,8.99h-5.69
		c-0.2-3.03-2.47-4.54-6.81-4.54c-1.92,0-3.51,0.36-4.77,1.09c-1.26,0.73-1.89,1.79-1.89,3.18c0,1.25,0.48,2.15,1.45,2.71
		c0.97,0.56,3.4,1.3,7.28,2.24c3.88,0.94,6.77,2.03,8.66,3.28c1.89,1.25,2.83,3.41,2.83,6.48c0,2.93-1.17,5.35-3.5,7.28
		C470.75,58.77,467.61,59.73,463.68,59.73z"/>
	<path d="M513.21,17.92h16.17l-0.33,1.12c-2.08,0.02-3.54,0.4-4.39,1.14c-0.85,0.74-1.74,2.71-2.66,5.92l-5.21,18.07
		c-0.99,3.41-1.99,6.01-3,7.81c-1.35,2.42-3.17,4.35-5.46,5.78c-2.29,1.43-4.86,2.15-7.7,2.15c-2.34,0-4.14-0.54-5.39-1.62
		s-1.88-2.39-1.88-3.92c0-1.21,0.38-2.22,1.14-3.03c0.76-0.81,1.66-1.21,2.71-1.21c0.91,0,1.65,0.27,2.23,0.82s0.86,1.21,0.86,2
		c0,0.65-0.26,1.27-0.79,1.88c-0.67,0.77-1,1.29-1,1.57c0,0.42,0.19,0.81,0.58,1.15c0.38,0.34,0.9,0.51,1.54,0.51
		c0.93,0,1.89-0.22,2.89-0.67c1-0.44,1.94-1.12,2.82-2.03s1.64-2,2.3-3.27c0.66-1.27,1.33-3.01,2.01-5.21l1.48-5.24l4.51-15.56
		c0.67-2.28,1-3.7,1-4.27c0-0.77-0.3-1.39-0.91-1.88s-1.89-0.79-3.84-0.91L513.21,17.92z"/>
	<path d="M551.65,41.05c0,3.03-0.8,6.02-2.41,8.99c-1.6,2.97-3.84,5.32-6.71,7.05c-2.87,1.74-5.65,2.6-8.36,2.6
		c-2.77,0-5.02-0.88-6.77-2.65c-1.75-1.77-2.62-4.05-2.62-6.86c0-2.97,0.85-5.94,2.56-8.93c1.71-2.99,3.99-5.35,6.84-7.08
		c2.86-1.74,5.62-2.6,8.28-2.6s4.86,0.88,6.58,2.63C550.79,35.97,551.65,38.25,551.65,41.05z M546.63,38.96
		c0-1.88-0.46-3.31-1.38-4.31c-0.92-1-2.1-1.5-3.56-1.5c-2.97,0-5.7,2.12-8.19,6.37c-2.49,4.25-3.74,8.47-3.74,12.67
		c0,1.92,0.48,3.4,1.45,4.44c0.97,1.04,2.19,1.56,3.66,1.56c2.85,0,5.51-2.11,8.01-6.34C545.38,47.62,546.63,43.32,546.63,38.96z"/>
	<path d="M583.17,32.3l-5.27,18.04c-0.79,2.68-1.18,4.38-1.18,5.09c0,0.36,0.07,0.63,0.2,0.8c0.13,0.17,0.31,0.26,0.53,0.26
		c0.34,0,0.72-0.16,1.14-0.47c0.41-0.31,1.46-1.56,3.13-3.74l0.91,0.7c-1.59,2.52-3.23,4.38-4.9,5.57
		c-1.11,0.77-2.18,1.15-3.21,1.15c-0.79,0-1.4-0.22-1.85-0.67c-0.44-0.44-0.67-1.02-0.67-1.73c0-0.69,0.13-1.59,0.39-2.72
		c0.32-1.49,1.24-4.74,2.75-9.75c-3.43,5.63-6.3,9.52-8.61,11.66c-2.31,2.14-4.46,3.21-6.43,3.21c-0.93,0-1.72-0.32-2.36-0.97
		c-0.65-0.65-0.97-1.46-0.97-2.45c0-1.51,0.44-3.83,1.33-6.96l2.63-9.35c0.65-2.24,0.97-3.63,0.97-4.18c0-0.24-0.09-0.45-0.26-0.62
		c-0.17-0.17-0.36-0.26-0.56-0.26c-0.42,0-0.85,0.15-1.27,0.45s-1.38,1.42-2.88,3.36l-0.94-0.67c1.51-2.34,3.12-4.07,4.81-5.18
		c1.29-0.87,2.48-1.3,3.57-1.3c0.75,0,1.36,0.24,1.83,0.71c0.47,0.47,0.71,1.08,0.71,1.83c0,1.09-0.4,3.04-1.21,5.84l-2.85,9.78
		c-0.79,2.66-1.18,4.35-1.18,5.06c0,0.38,0.13,0.69,0.38,0.92c0.25,0.23,0.59,0.35,1.01,0.35c0.67,0,1.53-0.33,2.6-1
		c1.07-0.67,2.5-2.14,4.28-4.44c1.79-2.29,3.26-4.44,4.42-6.45c1.16-2.01,2.4-5.2,3.71-9.58l0.67-2.3H583.17z"/>
	<path d="M588.22,33.27l10.44-1.7l-4.36,14.71c3.53-6.03,6.74-10.25,9.63-12.65c1.63-1.37,2.97-2.06,4-2.06
		c0.67,0,1.19,0.2,1.57,0.59c0.38,0.39,0.58,0.96,0.58,1.71c0,1.33-0.34,2.6-1.03,3.81c-0.48,0.91-1.18,1.36-2.09,1.36
		c-0.46,0-0.86-0.15-1.2-0.45c-0.33-0.3-0.54-0.77-0.62-1.39c-0.04-0.38-0.13-0.64-0.27-0.76c-0.16-0.16-0.35-0.24-0.58-0.24
		c-0.34,0-0.67,0.08-0.97,0.24c-0.53,0.28-1.32,1.07-2.39,2.36c-1.68,1.98-3.49,4.54-5.45,7.69c-0.85,1.33-1.57,2.84-2.18,4.51
		c-0.85,2.3-1.33,3.68-1.45,4.15l-0.97,3.81h-4.63l5.6-18.8c0.65-2.18,0.97-3.73,0.97-4.66c0-0.36-0.15-0.67-0.45-0.91
		c-0.4-0.32-0.94-0.48-1.6-0.48c-0.42,0-1.2,0.09-2.33,0.27L588.22,33.27z"/>
	<path d="M622.79,31.58l-4.03,13.77c3.77-5.63,6.67-9.33,8.67-11.11c2.01-1.78,3.94-2.66,5.8-2.66c1.01,0,1.84,0.33,2.5,1
		c0.66,0.67,0.98,1.53,0.98,2.6c0,1.21-0.29,2.83-0.88,4.84l-3.69,12.75c-0.42,1.47-0.64,2.37-0.64,2.69c0,0.28,0.08,0.52,0.24,0.71
		c0.16,0.19,0.33,0.29,0.51,0.29c0.24,0,0.53-0.13,0.88-0.39c1.07-0.85,2.24-2.14,3.51-3.88l0.94,0.58
		c-1.88,2.68-3.65,4.6-5.33,5.75c-1.17,0.79-2.22,1.18-3.15,1.18c-0.75,0-1.34-0.23-1.79-0.68c-0.44-0.45-0.67-1.06-0.67-1.83
		c0-0.97,0.34-2.63,1.03-5l3.51-12.17c0.44-1.51,0.67-2.69,0.67-3.54c0-0.4-0.13-0.73-0.39-0.98c-0.26-0.25-0.59-0.38-0.97-0.38
		c-0.57,0-1.24,0.24-2.03,0.73c-1.49,0.91-3.05,2.41-4.66,4.5c-1.62,2.09-3.32,4.76-5.12,8.01c-0.95,1.72-1.74,3.59-2.36,5.63
		l-1.51,5h-4.54l5.51-18.95c0.65-2.28,0.97-3.65,0.97-4.12c0-0.44-0.18-0.83-0.53-1.17c-0.35-0.33-0.79-0.5-1.32-0.5
		c-0.24,0-0.67,0.04-1.27,0.12l-1.15,0.18l-0.18-1.09L622.79,31.58z"/>
	<path d="M647.5,47.56c-0.14,1.01-0.21,1.85-0.21,2.51c0,1.8,0.64,3.33,1.91,4.59c1.27,1.26,2.82,1.89,4.63,1.89
		c1.45,0,2.85-0.3,4.19-0.89c1.34-0.6,3.33-1.91,5.98-3.95l0.64,0.88c-4.78,4.74-9.34,7.11-13.68,7.11c-2.95,0-5.17-0.93-6.66-2.79
		c-1.49-1.86-2.24-3.91-2.24-6.15c0-3.01,0.93-6.08,2.79-9.23c1.86-3.15,4.19-5.6,6.99-7.34c2.8-1.75,5.69-2.62,8.66-2.62
		c2.14,0,3.72,0.43,4.75,1.3c1.03,0.87,1.54,1.9,1.54,3.09c0,1.68-0.67,3.28-2,4.81c-1.76,2-4.34,3.61-7.75,4.84
		C654.77,46.45,651.59,47.1,647.5,47.56z M647.71,46.08c2.99-0.34,5.42-0.93,7.3-1.76c2.48-1.11,4.34-2.44,5.59-3.98
		c1.24-1.54,1.86-3.01,1.86-4.4c0-0.85-0.27-1.53-0.8-2.06c-0.53-0.52-1.3-0.79-2.29-0.79c-2.06,0-4.24,1.1-6.55,3.28
		C650.5,38.57,648.8,41.8,647.71,46.08z"/>
	<path d="M677.53,31.58c0.69,1.17,1.16,2.27,1.42,3.28c0.26,1.02,0.52,3.02,0.79,6.01l1.33,14.89c1.21-1.45,2.97-3.75,5.27-6.9
		c1.11-1.53,2.48-3.62,4.12-6.27c0.99-1.61,1.59-2.74,1.82-3.39c0.12-0.32,0.18-0.66,0.18-1c0-0.22-0.07-0.4-0.21-0.54
		c-0.14-0.14-0.51-0.31-1.1-0.5c-0.6-0.19-1.09-0.54-1.48-1.06c-0.39-0.51-0.59-1.1-0.59-1.77c0-0.83,0.24-1.49,0.73-2
		c0.48-0.5,1.09-0.76,1.82-0.76c0.89,0,1.64,0.37,2.27,1.1c0.62,0.74,0.94,1.75,0.94,3.04c0,1.59-0.54,3.42-1.63,5.46
		c-1.09,2.05-3.19,5.19-6.3,9.43c-3.11,4.24-6.87,8.86-11.29,13.87c-3.05,3.45-5.31,5.63-6.78,6.52c-1.47,0.9-2.73,1.35-3.78,1.35
		c-0.62,0-1.18-0.24-1.65-0.71c-0.47-0.47-0.71-1.02-0.71-1.65c0-0.79,0.33-1.5,0.98-2.15c0.66-0.65,1.37-0.97,2.13-0.97
		c0.4,0,0.74,0.09,1,0.27c0.16,0.1,0.34,0.39,0.53,0.86c0.19,0.47,0.37,0.79,0.53,0.95c0.1,0.1,0.22,0.15,0.36,0.15
		c0.12,0,0.33-0.1,0.64-0.3c1.11-0.69,2.4-1.78,3.88-3.27c1.94-1.98,3.37-3.59,4.3-4.84l-1.7-19.19c-0.28-3.17-0.71-5.1-1.27-5.78
		c-0.57-0.69-1.51-1.03-2.85-1.03c-0.42,0-1.18,0.06-2.27,0.18l-0.27-1.12L677.53,31.58z"/>
	<path d="M766.35,45.29l-56.28-0.03v-2.24l56.28,0.03V45.29z"/>
	<path d="M801.44,20.1l-4.84,16.26h5.39c2.42,0,4.23-0.37,5.43-1.12c1.2-0.75,2.44-2.34,3.71-4.78h1.15l-4.27,14.96h-1.21
		c0.3-1.21,0.45-2.21,0.45-3c0-1.23-0.41-2.18-1.23-2.86c-0.82-0.68-2.35-1.01-4.59-1.01h-5.45l-3.57,12.38
		c-0.65,2.2-0.97,3.66-0.97,4.39c0,0.75,0.28,1.32,0.83,1.73c0.56,0.4,1.91,0.68,4.07,0.82l-0.36,1.12h-16.23l0.39-1.12
		c1.57-0.04,2.62-0.18,3.15-0.42c0.81-0.34,1.4-0.81,1.79-1.39c0.54-0.83,1.19-2.53,1.94-5.12l7.24-24.73
		c0.58-2,0.88-3.56,0.88-4.69c0-0.52-0.13-0.97-0.39-1.35c-0.26-0.37-0.65-0.65-1.17-0.83c-0.52-0.18-1.54-0.27-3.07-0.27l0.36-1.12
		h31.85l-3.03,10.38h-1.15c0.22-1.25,0.33-2.28,0.33-3.09c0-1.33-0.37-2.39-1.11-3.16c-0.74-0.78-1.68-1.33-2.83-1.65
		c-0.81-0.2-2.61-0.3-5.42-0.3H801.44z"/>
	<path d="M822.39,33.27l10.44-1.7l-4.36,14.71c3.53-6.03,6.74-10.25,9.63-12.65c1.63-1.37,2.97-2.06,4-2.06
		c0.67,0,1.19,0.2,1.57,0.59c0.38,0.39,0.58,0.96,0.58,1.71c0,1.33-0.34,2.6-1.03,3.81c-0.48,0.91-1.18,1.36-2.09,1.36
		c-0.46,0-0.86-0.15-1.2-0.45c-0.33-0.3-0.54-0.77-0.62-1.39c-0.04-0.38-0.13-0.64-0.27-0.76c-0.16-0.16-0.35-0.24-0.58-0.24
		c-0.34,0-0.67,0.08-0.97,0.24c-0.53,0.28-1.32,1.07-2.39,2.36c-1.68,1.98-3.49,4.54-5.45,7.69c-0.85,1.33-1.57,2.84-2.18,4.51
		c-0.85,2.3-1.33,3.68-1.45,4.15l-0.97,3.81h-4.63l5.6-18.8c0.65-2.18,0.97-3.73,0.97-4.66c0-0.36-0.15-0.67-0.45-0.91
		c-0.4-0.32-0.94-0.48-1.6-0.48c-0.42,0-1.2,0.09-2.33,0.27L822.39,33.27z"/>
	<path d="M869.64,41.05c0,3.03-0.8,6.02-2.41,8.99c-1.6,2.97-3.84,5.32-6.71,7.05c-2.87,1.74-5.65,2.6-8.36,2.6
		c-2.77,0-5.02-0.88-6.77-2.65c-1.75-1.77-2.62-4.05-2.62-6.86c0-2.97,0.85-5.94,2.56-8.93c1.71-2.99,3.99-5.35,6.84-7.08
		c2.86-1.74,5.62-2.6,8.28-2.6s4.86,0.88,6.58,2.63C868.78,35.97,869.64,38.25,869.64,41.05z M864.62,38.96
		c0-1.88-0.46-3.31-1.38-4.31c-0.92-1-2.1-1.5-3.56-1.5c-2.97,0-5.7,2.12-8.19,6.37c-2.49,4.25-3.74,8.47-3.74,12.67
		c0,1.92,0.48,3.4,1.45,4.44c0.97,1.04,2.19,1.56,3.66,1.56c2.85,0,5.51-2.11,8.01-6.34C863.37,47.62,864.62,43.32,864.62,38.96z"/>
	<path d="M885.42,31.58l-3.94,13.65c1.76-3.21,3.25-5.62,4.48-7.24c1.92-2.5,3.78-4.32,5.6-5.45c1.07-0.65,2.19-0.97,3.36-0.97
		c1.01,0,1.85,0.32,2.51,0.97c0.67,0.65,1,1.47,1,2.48c0,0.99-0.23,2.28-0.7,3.88l-2.15,7.69c3.29-6.16,6.41-10.47,9.35-12.96
		c1.63-1.37,3.25-2.06,4.84-2.06c0.93,0,1.69,0.32,2.29,0.95c0.59,0.64,0.89,1.62,0.89,2.95c0,1.17-0.18,2.41-0.54,3.72l-3.33,11.78
		c-0.73,2.56-1.09,3.99-1.09,4.27c0,0.28,0.09,0.52,0.27,0.73c0.12,0.14,0.28,0.21,0.48,0.21c0.2,0,0.55-0.19,1.06-0.58
		c1.15-0.89,2.23-2.06,3.24-3.51l1,0.64c-0.5,0.81-1.4,1.92-2.68,3.33c-1.28,1.41-2.38,2.37-3.28,2.88s-1.75,0.76-2.51,0.76
		c-0.71,0-1.3-0.24-1.77-0.73c-0.47-0.48-0.71-1.08-0.71-1.79c0-0.97,0.41-2.92,1.24-5.84l2.75-9.72c0.62-2.24,0.96-3.48,1-3.72
		c0.06-0.38,0.09-0.76,0.09-1.12c0-0.5-0.11-0.9-0.33-1.18c-0.24-0.28-0.51-0.42-0.82-0.42c-0.85,0-1.75,0.43-2.69,1.3
		c-2.79,2.56-5.39,6.16-7.81,10.78c-1.59,3.05-3.09,6.95-4.48,11.72h-4.57l5.18-18.32c0.56-1.98,0.85-3.3,0.85-3.97
		c0-0.54-0.11-0.95-0.33-1.21c-0.22-0.26-0.5-0.39-0.82-0.39c-0.67,0-1.37,0.24-2.12,0.73c-1.21,0.79-2.77,2.47-4.68,5.06
		c-1.91,2.58-3.39,5.06-4.44,7.42c-0.5,1.11-1.71,4.67-3.6,10.69h-4.48l5.6-19.62l0.73-2.54c0.14-0.38,0.21-0.67,0.21-0.85
		c0-0.44-0.2-0.84-0.61-1.2c-0.4-0.35-0.92-0.53-1.54-0.53c-0.26,0-0.99,0.12-2.18,0.36l-0.27-1.12L885.42,31.58z"/>
	<path d="M42.73,94.26H28.04v39.11h-5.9V94.26H7.58V89h35.15V94.26z"/>
	<path d="M62.74,120.06H46.09v-5.48h16.65V120.06z"/>
	<path d="M86.44,134.13c-6.26,0-10.93-1.4-14.03-4.21c-3.1-2.8-4.73-6.41-4.89-10.81h5.66c0.3,3.31,1.68,5.76,4.13,7.34
		c2.45,1.58,5.41,2.38,8.89,2.38c3.29,0,5.94-0.68,7.95-2.03c2.01-1.35,3.01-3.19,3.01-5.51c0-2.44-1.04-4.22-3.12-5.33
		c-2.08-1.11-5.66-2.2-10.73-3.28c-5.08-1.08-8.72-2.58-10.93-4.5c-2.21-1.92-3.31-4.47-3.31-7.66c0-3.59,1.44-6.54,4.31-8.84
		s6.7-3.45,11.46-3.45c5,0,9.04,1.16,12.11,3.48c3.07,2.32,4.69,5.6,4.87,9.84H96.1c-0.59-5.37-4.26-8.05-11.02-8.05
		c-3.27,0-5.8,0.62-7.6,1.85c-1.8,1.23-2.69,2.87-2.69,4.9c0,1.86,0.72,3.25,2.16,4.18c1.44,0.93,4.14,1.83,8.08,2.69
		c3.95,0.87,7.08,1.73,9.4,2.57c2.32,0.85,4.31,2.16,5.96,3.95c1.65,1.79,2.48,4.18,2.48,7.19c0,3.81-1.52,6.98-4.56,9.51
		C95.29,132.87,91.32,134.13,86.44,134.13z"/>
	<path d="M145.9,133.38h-5.9v-20.89h-23.07v20.89h-5.87V89h5.87v18.22h23.07V89h5.9V133.38z"/>
	<path d="M162.46,133.38h-5.9V89h5.9V133.38z"/>
	<path d="M210.05,133.38h-6.36l-4.18-11.84c-0.75-2.1-1.99-3.81-3.72-5.15c-1.74-1.33-3.73-2-5.99-2h-10.87v18.98h-5.87V89h19.65
		c3.43,0,6.24,0.33,8.42,1s3.96,2.07,5.33,4.21c1.37,2.14,2.06,4.55,2.06,7.24c0,3.07-0.89,5.63-2.66,7.69
		c-1.78,2.06-4.21,3.4-7.3,4.03v0.12c3.09,0.99,5.44,3.66,7.05,8.02L210.05,133.38z M178.93,109.13h13.11c3.65,0,6.3-0.58,7.95-1.73
		c1.64-1.15,2.47-3.14,2.47-5.96c0-5.05-3.17-7.57-9.51-7.57h-14.02V109.13z"/>
	<path d="M249.37,94.26h-14.68v39.11h-5.9V94.26h-14.56V89h35.15V94.26z"/>
	<path d="M272.44,134.13c-6.26,0-10.93-1.4-14.03-4.21c-3.1-2.8-4.73-6.41-4.89-10.81h5.66c0.3,3.31,1.68,5.76,4.13,7.34
		c2.45,1.58,5.41,2.38,8.89,2.38c3.29,0,5.94-0.68,7.95-2.03c2.01-1.35,3.01-3.19,3.01-5.51c0-2.44-1.04-4.22-3.12-5.33
		c-2.08-1.11-5.66-2.2-10.73-3.28c-5.08-1.08-8.72-2.58-10.93-4.5c-2.21-1.92-3.31-4.47-3.31-7.66c0-3.59,1.44-6.54,4.31-8.84
		s6.7-3.45,11.46-3.45c5,0,9.04,1.16,12.11,3.48c3.07,2.32,4.69,5.6,4.87,9.84h-5.72c-0.59-5.37-4.26-8.05-11.02-8.05
		c-3.27,0-5.8,0.62-7.6,1.85c-1.8,1.23-2.69,2.87-2.69,4.9c0,1.86,0.72,3.25,2.16,4.18c1.44,0.93,4.14,1.83,8.08,2.69
		c3.95,0.87,7.08,1.73,9.4,2.57c2.32,0.85,4.31,2.16,5.96,3.95c1.65,1.79,2.48,4.18,2.48,7.19c0,3.81-1.52,6.98-4.56,9.51
		C281.29,132.87,277.32,134.13,272.44,134.13z"/>
	<path d="M324.66,98.47l-2.36,8.23h4.75l-0.51,1.91h-4.72l-5.21,17.86c-0.57,1.92-0.85,3.16-0.85,3.72c0,0.34,0.08,0.61,0.24,0.79
		c0.16,0.18,0.35,0.27,0.58,0.27c0.5,0,1.17-0.35,2-1.06c0.48-0.4,1.56-1.64,3.24-3.72l1,0.76c-1.86,2.71-3.61,4.61-5.27,5.72
		c-1.13,0.77-2.27,1.15-3.42,1.15c-0.89,0-1.61-0.28-2.18-0.83c-0.57-0.56-0.85-1.27-0.85-2.13c0-1.09,0.32-2.75,0.97-5l5.06-17.53
		h-4.57l0.3-1.18c2.22-0.61,4.07-1.51,5.54-2.71c1.47-1.2,3.12-3.28,4.93-6.25H324.66z"/>
	<path d="M354.45,115.45c0,3.03-0.8,6.02-2.41,8.99s-3.84,5.32-6.71,7.05c-2.87,1.74-5.65,2.6-8.36,2.6c-2.77,0-5.02-0.88-6.77-2.65
		c-1.75-1.77-2.62-4.05-2.62-6.86c0-2.97,0.85-5.94,2.56-8.93c1.71-2.99,3.99-5.35,6.84-7.08c2.86-1.74,5.62-2.6,8.28-2.6
		s4.86,0.88,6.58,2.63S354.45,112.65,354.45,115.45z M349.43,113.37c0-1.88-0.46-3.31-1.38-4.31c-0.92-1-2.1-1.5-3.56-1.5
		c-2.97,0-5.7,2.12-8.19,6.37c-2.49,4.25-3.74,8.47-3.74,12.67c0,1.92,0.48,3.4,1.45,4.44c0.97,1.04,2.19,1.56,3.66,1.56
		c2.85,0,5.51-2.11,8.01-6.34C348.18,122.02,349.43,117.72,349.43,113.37z"/>
	<path d="M414.48,133.38h-7.75l-15.74-22.13l-6.9,6.75v15.38h-5.87V89h5.87V111L405.73,89h7.93l-18.59,18.22L414.48,133.38z"/>
	<path d="M456.02,133.38h-6.63l-5.15-13.5h-18.59l-4.9,13.5h-6.21L431.59,89h6.33L456.02,133.38z M442.52,115.21l-7.81-20.59
		l-7.45,20.59H442.52z"/>
	<path d="M495.77,133.38h-6.02l-23.25-35.03v35.03h-5.57V89h5.99l23.25,35.03V89h5.6V133.38z"/>
	<path d="M541.78,89l-17.44,25.58v18.8h-5.87v-18.8L501.04,89h7.14l13.26,20.43L534.64,89H541.78z"/>
	<path d="M580.14,133.38h-33.09V89h32.06v5.27h-26.19v13.56h24.49v5.27h-24.49v15.02h27.22V133.38z"/>
	<path d="M657.82,89l-12.29,44.38h-5.63l-10.66-38.57l-10.69,38.57h-5.63L600.67,89h6.18l8.87,36.15L625.7,89h7.05l9.99,36.15
		L651.62,89H657.82z"/>
	<path d="M696.48,133.38h-33.09V89h32.06v5.27h-26.19v13.56h24.49v5.27h-24.49v15.02h27.22V133.38z"/>
	<path d="M721.49,134.13c-6.26,0-10.93-1.4-14.03-4.21c-3.1-2.8-4.73-6.41-4.89-10.81h5.66c0.3,3.31,1.68,5.76,4.13,7.34
		c2.45,1.58,5.41,2.38,8.89,2.38c3.29,0,5.94-0.68,7.95-2.03c2.01-1.35,3.01-3.19,3.01-5.51c0-2.44-1.04-4.22-3.12-5.33
		c-2.08-1.11-5.66-2.2-10.73-3.28c-5.08-1.08-8.72-2.58-10.93-4.5c-2.21-1.92-3.32-4.47-3.32-7.66c0-3.59,1.44-6.54,4.31-8.84
		c2.88-2.3,6.7-3.45,11.46-3.45c5,0,9.04,1.16,12.11,3.48c3.07,2.32,4.69,5.6,4.87,9.84h-5.72c-0.59-5.37-4.26-8.05-11.02-8.05
		c-3.27,0-5.8,0.62-7.6,1.85c-1.8,1.23-2.69,2.87-2.69,4.9c0,1.86,0.72,3.25,2.16,4.18c1.44,0.93,4.14,1.83,8.08,2.69
		c3.95,0.87,7.08,1.73,9.4,2.57c2.32,0.85,4.31,2.16,5.96,3.95c1.65,1.79,2.48,4.18,2.48,7.19c0,3.81-1.52,6.98-4.56,9.51
		C730.33,132.87,726.37,134.13,721.49,134.13z"/>
	<path d="M777.64,94.26h-14.68v39.11h-5.9V94.26H742.5V89h35.15V94.26z"/>
	<path d="M811.58,98.47l-2.36,8.23h4.75l-0.51,1.91h-4.72l-5.21,17.86c-0.57,1.92-0.85,3.16-0.85,3.72c0,0.34,0.08,0.61,0.24,0.79
		c0.16,0.18,0.35,0.27,0.58,0.27c0.5,0,1.17-0.35,2-1.06c0.48-0.4,1.56-1.64,3.24-3.72l1,0.76c-1.86,2.71-3.61,4.61-5.27,5.72
		c-1.13,0.77-2.27,1.15-3.42,1.15c-0.89,0-1.62-0.28-2.18-0.83c-0.57-0.56-0.85-1.27-0.85-2.13c0-1.09,0.32-2.75,0.97-5l5.06-17.53
		h-4.57l0.3-1.18c2.22-0.61,4.07-1.51,5.54-2.71c1.47-1.2,3.12-3.28,4.93-6.25H811.58z"/>
	<path d="M841.37,115.45c0,3.03-0.8,6.02-2.41,8.99c-1.6,2.97-3.84,5.32-6.71,7.05c-2.87,1.74-5.65,2.6-8.36,2.6
		c-2.77,0-5.02-0.88-6.77-2.65c-1.75-1.77-2.62-4.05-2.62-6.86c0-2.97,0.85-5.94,2.56-8.93c1.71-2.99,3.99-5.35,6.84-7.08
		c2.86-1.74,5.62-2.6,8.28-2.6s4.86,0.88,6.58,2.63C840.51,110.37,841.37,112.65,841.37,115.45z M836.34,113.37
		c0-1.88-0.46-3.31-1.38-4.31c-0.92-1-2.1-1.5-3.56-1.5c-2.97,0-5.7,2.12-8.19,6.37c-2.49,4.25-3.74,8.47-3.74,12.67
		c0,1.92,0.48,3.4,1.45,4.44c0.97,1.04,2.19,1.56,3.66,1.56c2.85,0,5.51-2.11,8.01-6.34C835.1,122.02,836.34,117.72,836.34,113.37z"
		/>
	<path d="M892.59,133.38h-27.46V89h5.87v39.11h21.58V133.38z"/>
	<path d="M918.84,88.24c6.22,0,11.3,2.1,15.26,6.3c3.96,4.2,5.93,9.75,5.93,16.65s-1.98,12.45-5.93,16.65
		c-3.96,4.2-9.04,6.3-15.26,6.3c-6.24,0-11.34-2.1-15.32-6.31c-3.98-4.21-5.96-9.75-5.96-16.64c0-6.9,1.99-12.45,5.96-16.65
		C907.5,90.34,912.6,88.24,918.84,88.24z M918.78,129.11c4.44,0,8.08-1.57,10.91-4.72c2.84-3.15,4.25-7.55,4.25-13.2
		c0-5.65-1.41-10.05-4.24-13.2c-2.83-3.15-6.43-4.72-10.81-4.72c-4.46,0-8.12,1.57-10.97,4.72c-2.86,3.15-4.28,7.55-4.28,13.2
		c0,5.63,1.42,10.03,4.27,13.18S914.38,129.11,918.78,129.11z"/>
	<path d="M965.25,134.13c-5.15,0-9-1-11.55-3c-2.55-2-4.17-4.35-4.84-7.05c-0.68-2.7-1.01-5.84-1.01-9.42V89h5.87v25.58
		c0,5.83,0.98,9.67,2.94,11.5c1.96,1.84,4.82,2.75,8.6,2.75c3.77,0,6.64-0.92,8.6-2.75c1.96-1.84,2.94-5.67,2.94-11.5V89h5.9v25.67
		c0,5.37-0.64,9.32-1.92,11.87c-1.28,2.54-3.21,4.45-5.8,5.71C972.38,133.5,969.14,134.13,965.25,134.13z"/>
	<path d="M999.25,133.38h-5.9V89h5.9V133.38z"/>
	<path d="M1026.58,134.13c-6.26,0-10.93-1.4-14.03-4.21c-3.1-2.8-4.73-6.41-4.89-10.81h5.66c0.3,3.31,1.68,5.76,4.13,7.34
		c2.45,1.58,5.41,2.38,8.89,2.38c3.29,0,5.94-0.68,7.95-2.03c2.01-1.35,3.01-3.19,3.01-5.51c0-2.44-1.04-4.22-3.12-5.33
		c-2.08-1.11-5.66-2.2-10.73-3.28c-5.08-1.08-8.72-2.58-10.93-4.5c-2.21-1.92-3.32-4.47-3.32-7.66c0-3.59,1.44-6.54,4.31-8.84
		c2.88-2.3,6.7-3.45,11.46-3.45c5,0,9.04,1.16,12.11,3.48c3.07,2.32,4.69,5.6,4.87,9.84h-5.72c-0.59-5.37-4.26-8.05-11.02-8.05
		c-3.27,0-5.8,0.62-7.6,1.85c-1.8,1.23-2.69,2.87-2.69,4.9c0,1.86,0.72,3.25,2.16,4.18c1.44,0.93,4.14,1.83,8.08,2.69
		c3.95,0.87,7.08,1.73,9.4,2.57c2.32,0.85,4.31,2.16,5.96,3.95c1.65,1.79,2.48,4.18,2.48,7.19c0,3.81-1.52,6.98-4.56,9.51
		C1035.43,132.87,1031.47,134.13,1026.58,134.13z"/>
	<path d="M47.15,163.39l-17.26,44.38h-6.05L6.58,163.39h6.27l14.02,38.05l14.02-38.05H47.15z"/>
	<path d="M69.94,208.53c-5.15,0-9-1-11.55-3c-2.55-2-4.17-4.35-4.84-7.05c-0.68-2.7-1.01-5.84-1.01-9.42v-25.67h5.87v25.58
		c0,5.83,0.98,9.67,2.94,11.5c1.96,1.84,4.82,2.75,8.6,2.75c3.77,0,6.64-0.92,8.6-2.75c1.96-1.84,2.94-5.67,2.94-11.5v-25.58h5.9
		v25.67c0,5.37-0.64,9.32-1.92,11.87c-1.28,2.54-3.21,4.45-5.8,5.71C77.08,207.9,73.84,208.53,69.94,208.53z"/>
	<path d="M103.94,207.78h-5.9v-44.38h5.9V207.78z"/>
	<path d="M146.08,168.66H131.4v39.11h-5.9v-39.11h-14.56v-5.27h35.15V168.66z"/>
	<path d="M183.95,168.66h-14.68v39.11h-5.9v-39.11H148.8v-5.27h35.15V168.66z"/>
	<path d="M209.5,162.64c6.22,0,11.3,2.1,15.26,6.3c3.96,4.2,5.93,9.75,5.93,16.65s-1.98,12.45-5.93,16.65
		c-3.96,4.2-9.04,6.3-15.26,6.3c-6.24,0-11.34-2.1-15.32-6.31c-3.98-4.21-5.96-9.75-5.96-16.64c0-6.9,1.99-12.45,5.96-16.65
		C198.16,164.74,203.27,162.64,209.5,162.64z M209.44,203.51c4.44,0,8.08-1.57,10.91-4.72c2.84-3.15,4.25-7.55,4.25-13.2
		c0-5.65-1.41-10.05-4.24-13.2c-2.83-3.15-6.43-4.72-10.81-4.72c-4.46,0-8.12,1.57-10.97,4.72c-2.86,3.15-4.28,7.55-4.28,13.2
		c0,5.63,1.42,10.03,4.27,13.18C201.42,201.93,205.04,203.51,209.44,203.51z"/>
	<path d="M273.35,207.78h-6.02l-23.25-35.03v35.03h-5.57v-44.38h5.99l23.25,35.03v-35.03h5.6V207.78z"/>
	<path d="M290.03,207.78c0,2.64-0.52,4.76-1.57,6.36c-1.05,1.59-2.59,2.39-4.63,2.39v-2.91c2.04,0,3.06-1.95,3.06-5.84h-3.06v-6.21
		h6.21V207.78z"/>
	<path d="M329.78,166.72l12.68,32.18l6.87-24.04c0.56-1.98,0.85-3.51,0.85-4.6c0-0.75-0.26-1.33-0.79-1.76
		c-0.52-0.42-1.5-0.64-2.94-0.64c-0.24,0-0.49-0.01-0.76-0.03l0.33-1.12h13.2l-0.36,1.12c-1.37-0.02-2.39,0.12-3.06,0.42
		c-0.95,0.42-1.66,0.97-2.12,1.63c-0.65,0.95-1.3,2.6-1.97,4.96l-9.66,33.85h-1.09l-13.65-34.63l-7.3,25.58
		c-0.54,1.94-0.82,3.42-0.82,4.45c0,0.77,0.25,1.35,0.74,1.74c0.49,0.39,1.67,0.66,3.53,0.8l-0.3,1.12h-12.9l0.42-1.12
		c1.61-0.04,2.69-0.18,3.24-0.42c0.83-0.36,1.44-0.84,1.85-1.42c0.58-0.89,1.24-2.6,1.97-5.15l8.14-28.55
		c-0.79-1.21-1.63-2.04-2.53-2.5c-0.9-0.46-2.3-0.71-4.19-0.77l0.33-1.12H329.78z"/>
	<path d="M382.03,189.85c0,3.03-0.8,6.02-2.41,8.99s-3.84,5.32-6.71,7.05c-2.87,1.74-5.65,2.6-8.36,2.6c-2.77,0-5.02-0.88-6.77-2.65
		c-1.75-1.77-2.62-4.05-2.62-6.86c0-2.97,0.85-5.94,2.56-8.93c1.71-2.99,3.99-5.35,6.84-7.08c2.86-1.74,5.62-2.6,8.28-2.6
		s4.86,0.88,6.58,2.63S382.03,187.05,382.03,189.85z M377,187.76c0-1.88-0.46-3.32-1.38-4.31c-0.92-1-2.1-1.5-3.56-1.5
		c-2.97,0-5.7,2.12-8.19,6.37c-2.49,4.25-3.74,8.47-3.74,12.67c0,1.92,0.48,3.4,1.45,4.44c0.97,1.04,2.19,1.56,3.66,1.56
		c2.85,0,5.51-2.11,8.01-6.34C375.76,196.42,377,192.12,377,187.76z"/>
	<path d="M410.34,180.38l2.09,22.71c3.51-4.12,6.32-7.98,8.42-11.59c1.23-2.12,1.85-3.65,1.85-4.6c0-0.44-0.1-0.84-0.3-1.18
		c-0.08-0.18-0.4-0.45-0.95-0.8c-0.56-0.35-0.94-0.72-1.17-1.09c-0.22-0.37-0.33-0.77-0.33-1.2c0-0.62,0.23-1.16,0.7-1.59
		c0.46-0.43,1.06-0.65,1.79-0.65c0.83,0,1.53,0.31,2.1,0.92c0.58,0.62,0.86,1.44,0.86,2.47c0,1.05-0.15,2.03-0.45,2.94
		c-0.61,1.74-1.79,3.98-3.54,6.72c-2.14,3.29-4.34,6.34-6.61,9.16c-2.27,2.81-3.96,4.79-5.07,5.92h-1.12l-1.97-20.95l-12.5,20.95
		h-1.33c-0.14-8.62-0.58-15.42-1.3-20.4c-0.3-2.08-0.81-3.44-1.51-4.09c-0.5-0.46-1.27-0.7-2.3-0.7c-0.59,0-1.33,0.06-2.24,0.18
		v-1.09l8.69-2.03c1.21,3.37,2,8.55,2.36,15.53c0.12,2.64,0.22,4.31,0.3,5l12.44-20.53H410.34z"/>
	<path d="M441.64,208.71l3.39-15.23h1.03c-0.14,1.47-0.21,2.69-0.21,3.66c0,2.77,0.88,5.02,2.65,6.75c1.77,1.74,4.07,2.6,6.92,2.6
		c2.64,0,4.65-0.81,6.02-2.44c1.37-1.62,2.06-3.5,2.06-5.62c0-1.37-0.31-2.62-0.94-3.75c-0.95-1.67-3.48-4.62-7.6-8.84
		c-2-2.02-3.28-3.52-3.84-4.51c-0.93-1.63-1.39-3.35-1.39-5.15c0-2.87,1.07-5.32,3.21-7.36c2.14-2.04,4.88-3.06,8.23-3.06
		c1.13,0,2.2,0.11,3.21,0.33c0.63,0.12,1.77,0.53,3.42,1.21c1.17,0.46,1.82,0.72,1.94,0.76c0.28,0.06,0.6,0.09,0.94,0.09
		c0.58,0,1.09-0.15,1.51-0.45s0.92-0.95,1.48-1.94h1.15l-3.15,13.62h-1.03c0.08-1.21,0.12-2.19,0.12-2.94
		c0-2.44-0.81-4.44-2.42-5.99c-1.61-1.55-3.74-2.33-6.39-2.33c-2.1,0-3.8,0.62-5.12,1.85c-1.31,1.23-1.97,2.65-1.97,4.27
		c0,1.41,0.42,2.76,1.26,4.04c0.84,1.28,2.76,3.37,5.78,6.27c3.02,2.9,4.97,5.16,5.86,6.78c0.89,1.62,1.33,3.36,1.33,5.19
		c0,2.08-0.55,4.09-1.65,6.04c-1.1,1.95-2.68,3.46-4.74,4.53s-4.31,1.6-6.75,1.6c-1.21,0-2.34-0.11-3.39-0.33
		c-1.05-0.22-2.72-0.77-5.03-1.63c-0.79-0.3-1.44-0.45-1.97-0.45c-1.19,0-2.12,0.81-2.79,2.42H441.64z"/>
	<path d="M488.32,172.87l-2.36,8.23h4.75l-0.51,1.91h-4.72l-5.21,17.86c-0.57,1.92-0.85,3.16-0.85,3.72c0,0.34,0.08,0.61,0.24,0.79
		c0.16,0.18,0.35,0.27,0.58,0.27c0.5,0,1.17-0.35,2-1.06c0.48-0.4,1.56-1.64,3.24-3.72l1,0.76c-1.86,2.71-3.61,4.61-5.27,5.72
		c-1.13,0.77-2.27,1.15-3.42,1.15c-0.89,0-1.61-0.28-2.18-0.83c-0.57-0.56-0.85-1.27-0.85-2.13c0-1.09,0.32-2.75,0.97-5l5.06-17.53
		h-4.57l0.3-1.18c2.22-0.61,4.07-1.51,5.54-2.71c1.47-1.2,3.12-3.28,4.93-6.25H488.32z"/>
	<path d="M518.11,189.85c0,3.03-0.8,6.02-2.41,8.99s-3.84,5.32-6.71,7.05c-2.87,1.74-5.65,2.6-8.36,2.6c-2.77,0-5.02-0.88-6.77-2.65
		c-1.75-1.77-2.62-4.05-2.62-6.86c0-2.97,0.85-5.94,2.56-8.93c1.71-2.99,3.99-5.35,6.84-7.08c2.86-1.74,5.62-2.6,8.28-2.6
		s4.86,0.88,6.58,2.63S518.11,187.05,518.11,189.85z M513.08,187.76c0-1.88-0.46-3.32-1.38-4.31c-0.92-1-2.1-1.5-3.56-1.5
		c-2.97,0-5.7,2.12-8.19,6.37c-2.49,4.25-3.74,8.47-3.74,12.67c0,1.92,0.48,3.4,1.45,4.44c0.97,1.04,2.19,1.56,3.66,1.56
		c2.85,0,5.51-2.11,8.01-6.34C511.84,196.42,513.08,192.12,513.08,187.76z"/>
	<path d="M534.15,180.38l-2.09,6.96c2.2-2.58,4.16-4.39,5.89-5.42c1.72-1.03,3.49-1.54,5.28-1.54c1.8,0,3.33,0.71,4.6,2.13
		c1.27,1.42,1.91,3.28,1.91,5.56c0,4.44-1.81,8.96-5.42,13.55c-3.61,4.59-7.82,6.89-12.62,6.89c-1.01,0-1.9-0.11-2.68-0.33
		c-0.78-0.22-1.65-0.62-2.62-1.18l-2.21,7.81c-0.44,1.53-0.67,2.53-0.67,3c0,0.44,0.12,0.82,0.35,1.14
		c0.23,0.31,0.61,0.55,1.14,0.73c0.52,0.17,1.56,0.26,3.12,0.26l-0.27,1.12H513.6l0.3-1.12c1.88-0.08,3.14-0.4,3.8-0.97
		c0.66-0.57,1.35-2.13,2.07-4.69l7.66-26.52c0.46-1.67,0.7-2.71,0.7-3.12c0-0.54-0.16-0.97-0.47-1.27c-0.31-0.3-0.79-0.45-1.44-0.45
		c-0.59,0-1.4,0.07-2.45,0.21v-1.18L534.15,180.38z M527.1,204.6c1.25,1.49,2.94,2.24,5.06,2.24c1.05,0,2.12-0.29,3.21-0.88
		c1.09-0.58,2.15-1.45,3.19-2.6c1.04-1.15,1.97-2.48,2.8-3.98c0.83-1.5,1.57-3.27,2.23-5.31c0.66-2.04,0.98-4.06,0.98-6.05
		c0-1.61-0.37-2.85-1.1-3.71c-0.74-0.86-1.6-1.29-2.59-1.29c-2.18,0-4.33,1.25-6.46,3.75c-2.13,2.5-3.69,5.43-4.68,8.78L527.1,204.6
		z"/>
	<path d="M573.93,180.38l-1.85,9.29h-1.12c-0.1-2.7-0.68-4.67-1.73-5.9c-1.05-1.23-2.35-1.85-3.91-1.85c-1.25,0-2.25,0.34-2.98,1.03
		c-0.74,0.69-1.11,1.51-1.11,2.48c0,0.67,0.15,1.3,0.44,1.91c0.29,0.61,0.93,1.45,1.92,2.54c2.62,2.87,4.32,5.03,5.09,6.48
		c0.77,1.45,1.15,2.83,1.15,4.12c0,2.1-0.87,3.96-2.62,5.58c-1.75,1.62-3.95,2.44-6.61,2.44c-1.45,0-3.13-0.34-5.03-1.03
		c-0.67-0.24-1.18-0.36-1.54-0.36c-0.91,0-1.59,0.46-2.06,1.39h-1.12l1.85-9.81h1.12c0.12,3.07,0.76,5.24,1.91,6.51
		s2.72,1.91,4.72,1.91c1.53,0,2.75-0.43,3.65-1.29c0.9-0.86,1.35-1.91,1.35-3.16c0-0.81-0.16-1.55-0.48-2.24
		c-0.57-1.21-1.75-2.89-3.56-5.03c-1.81-2.14-2.97-3.74-3.48-4.81c-0.52-1.07-0.77-2.14-0.77-3.21c0-1.96,0.71-3.61,2.13-4.96
		c1.42-1.35,3.25-2.03,5.5-2.03c0.65,0,1.23,0.05,1.76,0.15c0.28,0.06,0.94,0.29,1.98,0.68c1.04,0.39,1.73,0.59,2.07,0.59
		c0.87,0,1.59-0.47,2.18-1.42H573.93z"/>
	<path d="M620.16,180.38l-5.9,20.53l-0.67,2.75c-0.06,0.26-0.09,0.48-0.09,0.67c0,0.32,0.1,0.61,0.3,0.85
		c0.16,0.18,0.36,0.27,0.61,0.27c0.26,0,0.61-0.16,1.03-0.48c0.79-0.58,1.84-1.8,3.15-3.63l1.03,0.73c-1.39,2.1-2.83,3.7-4.3,4.8
		c-1.47,1.1-2.84,1.65-4.09,1.65c-0.87,0-1.52-0.22-1.95-0.65c-0.43-0.43-0.65-1.06-0.65-1.89c0-0.99,0.22-2.29,0.67-3.91l0.64-2.27
		c-2.64,3.45-5.08,5.86-7.3,7.24c-1.59,0.99-3.16,1.48-4.69,1.48c-1.47,0-2.75-0.61-3.81-1.83c-1.07-1.22-1.6-2.9-1.6-5.04
		c0-3.21,0.96-6.59,2.89-10.16c1.93-3.56,4.38-6.41,7.34-8.55c2.32-1.7,4.51-2.54,6.57-2.54c1.23,0,2.25,0.32,3.07,0.97
		c0.82,0.65,1.44,1.72,1.86,3.21l1.09-3.45L620.16,180.38z M609.38,181.95c-1.29,0-2.66,0.61-4.12,1.82
		c-2.06,1.72-3.89,4.26-5.5,7.63c-1.6,3.37-2.41,6.42-2.41,9.14c0,1.37,0.34,2.46,1.03,3.25c0.69,0.8,1.47,1.2,2.36,1.2
		c2.2,0,4.59-1.62,7.17-4.87c3.45-4.32,5.18-8.75,5.18-13.29c0-1.71-0.33-2.96-1-3.72C611.44,182.34,610.53,181.95,609.38,181.95z"
		/>
	<path d="M638.17,172.87l-2.36,8.23h4.75l-0.51,1.91h-4.72l-5.21,17.86c-0.57,1.92-0.85,3.16-0.85,3.72c0,0.34,0.08,0.61,0.24,0.79
		c0.16,0.18,0.35,0.27,0.58,0.27c0.5,0,1.17-0.35,2-1.06c0.48-0.4,1.56-1.64,3.24-3.72l1,0.76c-1.86,2.71-3.61,4.61-5.27,5.72
		c-1.13,0.77-2.27,1.15-3.42,1.15c-0.89,0-1.62-0.28-2.18-0.83c-0.57-0.56-0.85-1.27-0.85-2.13c0-1.09,0.32-2.75,0.97-5l5.06-17.53
		h-4.57l0.3-1.18c2.22-0.61,4.07-1.51,5.54-2.71c1.47-1.2,3.12-3.28,4.93-6.25H638.17z"/>
	<path d="M692.27,168.66h-14.68v39.11h-5.9v-39.11h-14.56v-5.27h35.15V168.66z"/>
	<path d="M703.56,179.74c2.85-3.21,6.04-4.81,9.6-4.81c7.25,0,10.87,3.95,10.87,11.84v21.01h-5.72v-20.77
		c0-2.62-0.47-4.51-1.41-5.66c-0.94-1.15-2.48-1.73-4.62-1.73c-2.91,0-5.81,1.72-8.72,5.15v23.01h-5.72v-44.38h5.72V179.74z"/>
	<path d="M745.98,208.53c-4.72,0-8.52-1.48-11.38-4.43c-2.87-2.96-4.3-7.08-4.3-12.37c0-5.25,1.39-9.36,4.16-12.34
		c2.78-2.98,6.4-4.47,10.88-4.47c4.58,0,8.24,1.46,10.97,4.39c2.74,2.93,4.1,7.06,4.1,12.41v1.36h-24.19
		c0.24,3.71,1.27,6.47,3.07,8.26c1.81,1.8,4.03,2.69,6.68,2.69c2,0,3.8-0.51,5.4-1.53c1.6-1.02,2.45-2.47,2.53-4.34h5.9
		c-0.44,3.31-1.94,5.86-4.5,7.66C752.76,207.63,749.65,208.53,745.98,208.53z M754.39,188.61c-0.46-3.09-1.5-5.4-3.12-6.93
		c-1.62-1.53-3.59-2.3-5.93-2.3c-2.28,0-4.24,0.76-5.87,2.29c-1.63,1.52-2.67,3.84-3.12,6.95H754.39z"/>
	<path d="M825.75,207.78h-5.57v-37.75l-12.65,37.75h-5.27l-12.65-37.75v37.75h-5.57v-44.38h8.81l12.02,36.99l12.08-36.99h8.81
		V207.78z"/>
	<path d="M854.27,208.53c-6.28,0-11.29-2.06-15.03-6.19c-3.74-4.13-5.62-9.71-5.62-16.76c0-7.04,1.87-12.63,5.62-16.76
		c3.74-4.13,8.75-6.19,15.03-6.19c4.82,0,8.93,1.3,12.32,3.91s5.3,6.04,5.72,10.29h-6.05c-0.24-2.8-1.46-5.04-3.65-6.69
		c-2.19-1.65-4.95-2.48-8.28-2.48c-4.5,0-8.06,1.55-10.69,4.65c-2.62,3.1-3.94,7.52-3.94,13.27c0,5.73,1.3,10.15,3.91,13.26
		c2.6,3.11,6.13,4.66,10.6,4.66c3.47,0,6.28-0.85,8.42-2.54c2.14-1.7,3.35-4.12,3.63-7.27h6.05c-0.42,4.72-2.28,8.38-5.57,10.96
		C863.45,207.24,859.29,208.53,854.27,208.53z"/>
	<path d="M916.9,207.78h-6.63l-5.15-13.5h-18.59l-4.9,13.5h-6.21l17.04-44.38h6.33L916.9,207.78z M903.4,189.61l-7.81-20.59
		l-7.45,20.59H903.4z"/>
</g>
<g>
	<path d="M944.22,202.12l-0.28,0.91h-3.54l0.28-0.91H944.22z"/>
	<path d="M948.29,205.82l0.77-3.44h0.23c-0.03,0.33-0.05,0.61-0.05,0.83c0,0.62,0.2,1.13,0.6,1.52c0.4,0.39,0.92,0.59,1.56,0.59
		c0.6,0,1.05-0.18,1.36-0.55c0.31-0.37,0.46-0.79,0.46-1.27c0-0.31-0.07-0.59-0.21-0.85c-0.21-0.38-0.79-1.04-1.72-2
		c-0.45-0.46-0.74-0.79-0.87-1.02c-0.21-0.37-0.31-0.76-0.31-1.16c0-0.65,0.24-1.2,0.72-1.66s1.1-0.69,1.86-0.69
		c0.25,0,0.5,0.03,0.72,0.08c0.14,0.03,0.4,0.12,0.77,0.27c0.26,0.1,0.41,0.16,0.44,0.17c0.06,0.01,0.13,0.02,0.21,0.02
		c0.13,0,0.25-0.03,0.34-0.1s0.21-0.21,0.33-0.44h0.26l-0.71,3.08h-0.23c0.02-0.27,0.03-0.49,0.03-0.66c0-0.55-0.18-1-0.55-1.35
		s-0.85-0.53-1.44-0.53c-0.47,0-0.86,0.14-1.16,0.42s-0.44,0.6-0.44,0.96c0,0.32,0.09,0.62,0.28,0.91c0.19,0.29,0.62,0.76,1.3,1.41
		c0.68,0.65,1.12,1.17,1.32,1.53c0.2,0.37,0.3,0.76,0.3,1.17c0,0.47-0.12,0.92-0.37,1.36c-0.25,0.44-0.61,0.78-1.07,1.02
		s-0.97,0.36-1.52,0.36c-0.27,0-0.53-0.03-0.77-0.08s-0.62-0.17-1.13-0.37c-0.18-0.07-0.33-0.1-0.44-0.1
		c-0.27,0-0.48,0.18-0.63,0.55H948.29z"/>
	<path d="M958.83,197.73l-0.53,1.86h1.07l-0.12,0.43h-1.07l-1.18,4.03c-0.13,0.43-0.19,0.71-0.19,0.84c0,0.08,0.02,0.14,0.05,0.18
		s0.08,0.06,0.13,0.06c0.11,0,0.26-0.08,0.45-0.24c0.11-0.09,0.35-0.37,0.73-0.84l0.23,0.17c-0.42,0.61-0.82,1.04-1.19,1.29
		c-0.25,0.17-0.51,0.26-0.77,0.26c-0.2,0-0.36-0.06-0.49-0.19c-0.13-0.13-0.19-0.29-0.19-0.48c0-0.25,0.07-0.62,0.22-1.13l1.14-3.96
		h-1.03l0.07-0.27c0.5-0.14,0.92-0.34,1.25-0.61c0.33-0.27,0.7-0.74,1.11-1.41H958.83z"/>
	<path d="M960.75,203.03c-0.03,0.23-0.05,0.42-0.05,0.57c0,0.41,0.14,0.75,0.43,1.04c0.29,0.29,0.64,0.43,1.05,0.43
		c0.33,0,0.64-0.07,0.95-0.2c0.3-0.13,0.75-0.43,1.35-0.89l0.14,0.2c-1.08,1.07-2.11,1.61-3.09,1.61c-0.67,0-1.17-0.21-1.5-0.63
		s-0.51-0.88-0.51-1.39c0-0.68,0.21-1.37,0.63-2.08s0.95-1.26,1.58-1.66c0.63-0.39,1.29-0.59,1.96-0.59c0.48,0,0.84,0.1,1.07,0.29
		s0.35,0.43,0.35,0.7c0,0.38-0.15,0.74-0.45,1.09c-0.4,0.45-0.98,0.82-1.75,1.09C962.39,202.78,961.67,202.93,960.75,203.03z
		 M960.8,202.7c0.67-0.08,1.22-0.21,1.65-0.4c0.56-0.25,0.98-0.55,1.26-0.9c0.28-0.35,0.42-0.68,0.42-1c0-0.19-0.06-0.35-0.18-0.46
		c-0.12-0.12-0.29-0.18-0.52-0.18c-0.46,0-0.96,0.25-1.48,0.74C961.43,201,961.04,201.73,960.8,202.7z"/>
	<path d="M965.6,199.85l1.98-0.42c0.14,0.34,0.25,0.68,0.34,1.03c0.12,0.51,0.22,1.13,0.3,1.83c0.04,0.36,0.09,1.11,0.15,2.26
		c0.57-0.63,0.91-1.02,1.02-1.17c0.6-0.82,0.95-1.29,1.04-1.44c0.15-0.24,0.25-0.45,0.31-0.64c0.05-0.14,0.08-0.27,0.08-0.39
		c0-0.12-0.11-0.25-0.32-0.41c-0.21-0.16-0.32-0.33-0.32-0.52c0-0.15,0.06-0.28,0.17-0.39c0.12-0.11,0.25-0.17,0.41-0.17
		c0.19,0,0.36,0.08,0.51,0.24c0.15,0.16,0.22,0.35,0.22,0.58s-0.04,0.46-0.11,0.67c-0.12,0.35-0.34,0.77-0.66,1.27
		c-0.32,0.5-0.85,1.17-1.57,2.01c-0.09,0.1-0.6,0.63-1.52,1.59h-0.25c-0.11-2.88-0.34-4.68-0.68-5.4c-0.11-0.23-0.3-0.35-0.57-0.35
		c-0.11,0-0.28,0.02-0.49,0.06L965.6,199.85z"/>
	<path d="M973.18,203.03c-0.03,0.23-0.05,0.42-0.05,0.57c0,0.41,0.14,0.75,0.43,1.04c0.29,0.29,0.64,0.43,1.05,0.43
		c0.33,0,0.64-0.07,0.95-0.2c0.3-0.13,0.75-0.43,1.35-0.89l0.14,0.2c-1.08,1.07-2.11,1.61-3.09,1.61c-0.67,0-1.17-0.21-1.5-0.63
		s-0.51-0.88-0.51-1.39c0-0.68,0.21-1.37,0.63-2.08s0.95-1.26,1.58-1.66c0.63-0.39,1.29-0.59,1.96-0.59c0.48,0,0.84,0.1,1.07,0.29
		s0.35,0.43,0.35,0.7c0,0.38-0.15,0.74-0.45,1.09c-0.4,0.45-0.98,0.82-1.75,1.09C974.82,202.78,974.1,202.93,973.18,203.03z
		 M973.23,202.7c0.67-0.08,1.22-0.21,1.65-0.4c0.56-0.25,0.98-0.55,1.26-0.9c0.28-0.35,0.42-0.68,0.42-1c0-0.19-0.06-0.35-0.18-0.46
		c-0.12-0.12-0.29-0.18-0.52-0.18c-0.46,0-0.96,0.25-1.48,0.74C973.86,201,973.47,201.73,973.23,202.7z"/>
	<path d="M985.23,196.34h3.65l-0.08,0.25c-0.47,0-0.8,0.09-0.99,0.26c-0.19,0.17-0.39,0.61-0.6,1.34l-1.18,4.08
		c-0.22,0.77-0.45,1.36-0.68,1.76c-0.31,0.55-0.72,0.98-1.23,1.31c-0.52,0.32-1.1,0.49-1.74,0.49c-0.53,0-0.93-0.12-1.22-0.37
		c-0.28-0.24-0.42-0.54-0.42-0.88c0-0.27,0.09-0.5,0.26-0.68c0.17-0.18,0.38-0.27,0.61-0.27c0.21,0,0.37,0.06,0.5,0.18
		c0.13,0.12,0.19,0.27,0.19,0.45c0,0.15-0.06,0.29-0.18,0.42c-0.15,0.17-0.23,0.29-0.23,0.36c0,0.1,0.04,0.18,0.13,0.26
		s0.2,0.12,0.35,0.12c0.21,0,0.43-0.05,0.65-0.15c0.23-0.1,0.44-0.25,0.64-0.46c0.2-0.21,0.37-0.45,0.52-0.74
		c0.15-0.29,0.3-0.68,0.45-1.18l0.33-1.18l1.02-3.51c0.15-0.51,0.23-0.84,0.23-0.96c0-0.17-0.07-0.31-0.21-0.42
		s-0.43-0.18-0.87-0.21L985.23,196.34z"/>
	<path d="M993.91,201.56c0,0.68-0.18,1.36-0.54,2.03c-0.36,0.67-0.87,1.2-1.51,1.59s-1.28,0.59-1.89,0.59c-0.62,0-1.13-0.2-1.53-0.6
		c-0.39-0.4-0.59-0.92-0.59-1.55c0-0.67,0.19-1.34,0.58-2.02c0.38-0.67,0.9-1.21,1.54-1.6c0.64-0.39,1.27-0.59,1.87-0.59
		s1.1,0.2,1.49,0.59C993.72,200.41,993.91,200.93,993.91,201.56z M992.78,201.09c0-0.42-0.1-0.75-0.31-0.97
		c-0.21-0.23-0.47-0.34-0.8-0.34c-0.67,0-1.29,0.48-1.85,1.44c-0.56,0.96-0.84,1.91-0.84,2.86c0,0.43,0.11,0.77,0.33,1
		c0.22,0.23,0.49,0.35,0.83,0.35c0.64,0,1.25-0.48,1.81-1.43C992.5,203.04,992.78,202.07,992.78,201.09z"/>
	<path d="M998.55,195.89l-1.92,6.64c0.83-1.25,1.48-2.08,1.94-2.49s0.91-0.62,1.33-0.62c0.22,0,0.4,0.08,0.55,0.23
		s0.22,0.35,0.22,0.6c0,0.3-0.06,0.67-0.19,1.09l-0.83,2.86c-0.1,0.35-0.16,0.54-0.16,0.57c0,0.06,0.02,0.12,0.06,0.16
		c0.04,0.04,0.08,0.06,0.13,0.06c0.06,0,0.13-0.03,0.21-0.09c0.26-0.2,0.52-0.48,0.77-0.83l0.21,0.13c-0.16,0.24-0.37,0.51-0.65,0.8
		c-0.28,0.29-0.51,0.49-0.71,0.6c-0.2,0.11-0.37,0.17-0.53,0.17c-0.17,0-0.31-0.05-0.41-0.16c-0.11-0.11-0.16-0.25-0.16-0.41
		c0-0.2,0.08-0.57,0.24-1.12l0.79-2.73c0.1-0.34,0.15-0.61,0.15-0.81c0-0.09-0.03-0.16-0.09-0.22c-0.06-0.05-0.13-0.08-0.22-0.08
		c-0.13,0-0.28,0.05-0.45,0.15c-0.31,0.19-0.67,0.55-1.07,1.07c-0.11,0.14-0.47,0.71-1.09,1.71c-0.19,0.32-0.35,0.67-0.47,1.05
		l-0.44,1.4h-1.03l2.25-7.82l0.24-0.85c0-0.12-0.05-0.22-0.15-0.31c-0.1-0.09-0.22-0.14-0.36-0.14c-0.08,0-0.21,0.01-0.38,0.04
		l-0.14,0.02v-0.27L998.55,195.89z"/>
	<path d="M1004.53,199.42l-0.91,3.11c0.85-1.27,1.5-2.11,1.96-2.51c0.45-0.4,0.89-0.6,1.31-0.6c0.23,0,0.42,0.08,0.56,0.23
		c0.15,0.15,0.22,0.35,0.22,0.59c0,0.27-0.07,0.64-0.2,1.09l-0.83,2.88c-0.1,0.33-0.14,0.54-0.14,0.61c0,0.06,0.02,0.12,0.05,0.16
		c0.04,0.04,0.08,0.07,0.12,0.07c0.05,0,0.12-0.03,0.2-0.09c0.24-0.19,0.51-0.48,0.79-0.88l0.21,0.13c-0.42,0.61-0.83,1.04-1.2,1.3
		c-0.26,0.18-0.5,0.27-0.71,0.27c-0.17,0-0.3-0.05-0.4-0.15c-0.1-0.1-0.15-0.24-0.15-0.41c0-0.22,0.08-0.59,0.23-1.13l0.79-2.75
		c0.1-0.34,0.15-0.61,0.15-0.8c0-0.09-0.03-0.17-0.09-0.22c-0.06-0.06-0.13-0.09-0.22-0.09c-0.13,0-0.28,0.05-0.46,0.16
		c-0.34,0.21-0.69,0.54-1.05,1.02c-0.36,0.47-0.75,1.07-1.16,1.81c-0.21,0.39-0.39,0.81-0.53,1.27l-0.34,1.13h-1.03l1.24-4.28
		c0.15-0.51,0.22-0.83,0.22-0.93c0-0.1-0.04-0.19-0.12-0.26c-0.08-0.07-0.18-0.11-0.3-0.11c-0.05,0-0.15,0.01-0.29,0.03l-0.26,0.04
		l-0.04-0.25L1004.53,199.42z"/>
	<path d="M1013.52,199.42l-0.42,2.1h-0.25c-0.02-0.61-0.15-1.05-0.39-1.33s-0.53-0.42-0.88-0.42c-0.28,0-0.51,0.08-0.67,0.23
		c-0.17,0.16-0.25,0.34-0.25,0.56c0,0.15,0.03,0.29,0.1,0.43c0.07,0.14,0.21,0.33,0.43,0.57c0.59,0.65,0.98,1.13,1.15,1.46
		s0.26,0.64,0.26,0.93c0,0.47-0.2,0.89-0.59,1.26c-0.39,0.37-0.89,0.55-1.49,0.55c-0.33,0-0.71-0.08-1.13-0.23
		c-0.15-0.05-0.27-0.08-0.35-0.08c-0.21,0-0.36,0.1-0.46,0.31h-0.25l0.42-2.21h0.25c0.03,0.69,0.17,1.18,0.43,1.47
		s0.62,0.43,1.07,0.43c0.35,0,0.62-0.1,0.82-0.29c0.2-0.19,0.3-0.43,0.3-0.71c0-0.18-0.04-0.35-0.11-0.51
		c-0.13-0.27-0.4-0.65-0.8-1.13c-0.41-0.48-0.67-0.85-0.79-1.09c-0.12-0.24-0.17-0.48-0.17-0.72c0-0.44,0.16-0.82,0.48-1.12
		c0.32-0.31,0.74-0.46,1.24-0.46c0.15,0,0.28,0.01,0.4,0.03c0.06,0.01,0.21,0.06,0.45,0.15c0.23,0.09,0.39,0.13,0.47,0.13
		c0.2,0,0.36-0.11,0.49-0.32H1013.52z"/>
	<path d="M1020.36,201.56c0,0.68-0.18,1.36-0.54,2.03c-0.36,0.67-0.87,1.2-1.51,1.59s-1.28,0.59-1.89,0.59
		c-0.62,0-1.13-0.2-1.53-0.6c-0.39-0.4-0.59-0.92-0.59-1.55c0-0.67,0.19-1.34,0.58-2.02c0.38-0.67,0.9-1.21,1.54-1.6
		c0.64-0.39,1.27-0.59,1.87-0.59s1.1,0.2,1.49,0.59C1020.17,200.41,1020.36,200.93,1020.36,201.56z M1019.22,201.09
		c0-0.42-0.1-0.75-0.31-0.97c-0.21-0.23-0.47-0.34-0.8-0.34c-0.67,0-1.29,0.48-1.85,1.44c-0.56,0.96-0.84,1.91-0.84,2.86
		c0,0.43,0.11,0.77,0.33,1c0.22,0.23,0.49,0.35,0.83,0.35c0.64,0,1.25-0.48,1.81-1.43C1018.94,203.04,1019.22,202.07,1019.22,201.09
		z"/>
	<path d="M1023.98,199.42l-0.91,3.11c0.85-1.27,1.5-2.11,1.96-2.51c0.45-0.4,0.89-0.6,1.31-0.6c0.23,0,0.42,0.08,0.56,0.23
		c0.15,0.15,0.22,0.35,0.22,0.59c0,0.27-0.07,0.64-0.2,1.09l-0.83,2.88c-0.1,0.33-0.14,0.54-0.14,0.61c0,0.06,0.02,0.12,0.05,0.16
		c0.04,0.04,0.08,0.07,0.12,0.07c0.05,0,0.12-0.03,0.2-0.09c0.24-0.19,0.51-0.48,0.79-0.88l0.21,0.13c-0.42,0.61-0.83,1.04-1.2,1.3
		c-0.26,0.18-0.5,0.27-0.71,0.27c-0.17,0-0.3-0.05-0.4-0.15c-0.1-0.1-0.15-0.24-0.15-0.41c0-0.22,0.08-0.59,0.23-1.13l0.79-2.75
		c0.1-0.34,0.15-0.61,0.15-0.8c0-0.09-0.03-0.17-0.09-0.22c-0.06-0.06-0.13-0.09-0.22-0.09c-0.13,0-0.28,0.05-0.46,0.16
		c-0.34,0.21-0.69,0.54-1.05,1.02c-0.36,0.47-0.75,1.07-1.16,1.81c-0.21,0.39-0.39,0.81-0.53,1.27l-0.34,1.13h-1.03l1.24-4.28
		c0.15-0.51,0.22-0.83,0.22-0.93c0-0.1-0.04-0.19-0.12-0.26c-0.08-0.07-0.18-0.11-0.3-0.11c-0.05,0-0.15,0.01-0.29,0.03l-0.26,0.04
		l-0.04-0.25L1023.98,199.42z"/>
</g>
</svg>
